<svg xmlns="http://www.w3.org/2000/svg" viewBox="0 0 64 64" width="64" height="64" fill="none">
  <path d="M 24.50,1.92 L 26.44,9.68 L 27.17,9.51 L 27.91,9.36 L 28.65,9.23 L 29.39,9.11 L 30.14,9.01 L 30.89,8.92 L 31.65,8.85 L 32.41,8.79 L 33.17,8.73 L 33.94,8.69 L 34.71,8.66 L 35.49,8.63 L 36.28,8.62 L 37.08,8.61 L 37.89,8.61 L 38.70,8.62 L 39.53,8.64 L 40.38,8.67 L 41.24,8.70 L 42.11,8.75 L 43.00,8.80 L 43.91,8.87 L 44.84,8.95 L 45.80,9.04 L 46.77,9.15 L 47.77,9.27 L 48.79,9.41 L 49.84,9.58 L 50.91,9.76 L 52.01,9.97 L 53.14,10.20 L 54.30,10.47 L 54.30,10.47 L 48.54,16.02 L 49.06,16.57 L 49.56,17.14 L 50.04,17.71 L 50.52,18.30 L 50.98,18.89 L 51.43,19.50 L 51.87,20.12 L 52.31,20.74 L 52.73,21.38 L 53.15,22.02 L 53.57,22.68 L 53.98,23.34 L 54.39,24.02 L 54.79,24.70 L 55.20,25.40 L 55.60,26.12 L 56.00,26.84 L 56.40,27.59 L 56.80,28.35 L 57.19,29.13 L 57.59,29.93 L 57.99,30.75 L 58.39,31.60 L 58.78,32.47 L 59.18,33.36 L 59.57,34.29 L 59.96,35.25 L 60.34,36.24 L 60.72,37.26 L 61.09,38.32 L 61.45,39.41 L 61.80,40.54 L 61.80,40.54 L 54.11,38.34 L 53.89,39.06 L 53.65,39.77 L 53.40,40.48 L 53.13,41.19 L 52.84,41.88 L 52.54,42.58 L 52.23,43.27 L 51.90,43.96 L 51.56,44.65 L 51.22,45.33 L 50.86,46.02 L 50.49,46.71 L 50.11,47.40 L 49.72,48.09 L 49.31,48.79 L 48.89,49.49 L 48.46,50.20 L 48.02,50.92 L 47.56,51.65 L 47.08,52.38 L 46.59,53.13 L 46.08,53.88 L 45.54,54.65 L 44.99,55.43 L 44.41,56.22 L 43.80,57.02 L 43.17,57.83 L 42.50,58.66 L 41.80,59.50 L 41.07,60.35 L 40.31,61.21 L 39.50,62.08 L 39.50,62.08 L 37.56,54.32 L 36.83,54.49 L 36.09,54.64 L 35.35,54.77 L 34.61,54.89 L 33.86,54.99 L 33.11,55.08 L 32.35,55.15 L 31.59,55.21 L 30.83,55.27 L 30.06,55.31 L 29.29,55.34 L 28.51,55.37 L 27.72,55.38 L 26.92,55.39 L 26.11,55.39 L 25.30,55.38 L 24.47,55.36 L 23.62,55.33 L 22.76,55.30 L 21.89,55.25 L 21.00,55.20 L 20.09,55.13 L 19.16,55.05 L 18.20,54.96 L 17.23,54.85 L 16.23,54.73 L 15.21,54.59 L 14.16,54.42 L 13.09,54.24 L 11.99,54.03 L 10.86,53.80 L 9.70,53.53 L 9.70,53.53 L 15.46,47.98 L 14.94,47.43 L 14.44,46.86 L 13.96,46.29 L 13.48,45.70 L 13.02,45.11 L 12.57,44.50 L 12.13,43.88 L 11.69,43.26 L 11.27,42.62 L 10.85,41.98 L 10.43,41.32 L 10.02,40.66 L 9.61,39.98 L 9.21,39.30 L 8.80,38.60 L 8.40,37.88 L 8.00,37.16 L 7.60,36.41 L 7.20,35.65 L 6.81,34.87 L 6.41,34.07 L 6.01,33.25 L 5.61,32.40 L 5.22,31.53 L 4.82,30.64 L 4.43,29.71 L 4.04,28.75 L 3.66,27.76 L 3.28,26.74 L 2.91,25.68 L 2.55,24.59 L 2.20,23.46 L 2.20,23.46 L 9.89,25.66 L 10.11,24.94 L 10.35,24.23 L 10.60,23.52 L 10.87,22.81 L 11.16,22.12 L 11.46,21.42 L 11.77,20.73 L 12.10,20.04 L 12.44,19.35 L 12.78,18.67 L 13.14,17.98 L 13.51,17.29 L 13.89,16.60 L 14.28,15.91 L 14.69,15.21 L 15.11,14.51 L 15.54,13.80 L 15.98,13.08 L 16.44,12.35 L 16.92,11.62 L 17.41,10.87 L 17.92,10.12 L 18.46,9.35 L 19.01,8.57 L 19.59,7.78 L 20.20,6.98 L 20.83,6.17 L 21.50,5.34 L 22.20,4.50 L 22.93,3.65 L 23.69,2.79 L 24.50,1.92 Z M 16.00,32.00 A 16.00,16.00 0 1,1 48.00,32.00 A 16.00,16.00 0 1,1 16.00,32.00 Z" fill="#4CAF3E" fill-rule="evenodd"/>
  <line x1="32.00" y1="32.00" x2="38.04" y2="35.49" stroke="#FFFFFF" stroke-width="4.6" stroke-linecap="round"/>
  <line x1="32.00" y1="32.00" x2="32.00" y2="20.54" stroke="#FFFFFF" stroke-width="4.6" stroke-linecap="round"/>
</svg>
